<?xml version="1.0" standalone="no"?>
<!DOCTYPE svg PUBLIC "-//W3C//DTD SVG 20010904//EN"
 "http://www.w3.org/TR/2001/REC-SVG-20010904/DTD/svg10.dtd">
<svg version="1.0" xmlns="http://www.w3.org/2000/svg"
 width="285.000000pt" height="285.000000pt" viewBox="0 0 285.000000 285.000000"
 preserveAspectRatio="xMidYMid meet">

<g transform="translate(0.000000,285.000000) scale(0.100000,-0.100000)" fill="#5f46e4" stroke="none">
<path d="M2032 2638 c-53 -18 -118 -82 -136 -135 -22 -64 -20 -148 4 -202 l21
-44 -24 -26 c-245 -272 -267 -300 -250 -309 10 -5 62 -24 116 -41 l97 -33 0
-121 c-1 -211 -67 -475 -167 -671 -117 -225 -335 -449 -547 -561 l-71 -38 -83
41 c-119 60 -195 114 -300 216 -192 185 -309 381 -384 640 -47 163 -81 473
-54 495 10 8 128 48 167 56 9 2 153 49 320 104 166 56 312 101 323 101 12 0
115 -34 229 -75 177 -64 211 -73 226 -63 44 32 141 127 134 131 -13 8 -148 59
-380 142 l-211 77 -394 -131 c-216 -71 -453 -149 -527 -172 l-133 -42 5 -231
c4 -199 8 -248 30 -352 113 -524 424 -925 900 -1159 61 -30 116 -55 122 -55
15 0 163 72 214 104 23 15 59 36 78 47 93 52 279 218 380 339 47 56 137 198
180 285 100 198 166 440 180 655 l6 95 150 73 151 72 30 -29 c96 -93 273 -84
356 17 45 54 66 133 51 195 -51 221 -358 257 -452 52 -10 -22 -19 -53 -19 -68
0 -24 -7 -31 -52 -51 -29 -13 -90 -42 -136 -64 l-84 -40 -17 42 c-23 52 -43
69 -108 90 -29 10 -55 22 -58 26 -3 5 20 41 52 80 46 57 62 70 78 65 89 -28
182 -12 246 43 135 116 111 334 -45 414 -48 25 -163 33 -214 16z m156 -134
c68 -47 69 -158 2 -197 -59 -35 -141 -11 -166 48 -23 57 -18 90 21 130 30 29
43 35 78 35 23 0 53 -7 65 -16z m478 -429 c80 -56 35 -195 -63 -195 -52 0
-103 56 -103 111 0 58 42 99 102 99 24 0 53 -7 64 -15z"/>
<path d="M1604 1627 c-54 -41 -212 -158 -350 -260 -138 -103 -257 -187 -264
-187 -14 0 -99 61 -253 182 -49 38 -94 67 -101 65 -24 -10 -156 -109 -156
-118 0 -5 21 -53 46 -107 87 -182 211 -341 358 -461 91 -74 206 -151 226 -151
58 0 304 236 402 386 88 134 172 314 146 314 -6 0 -70 -33 -142 -74 -184 -103
-386 -207 -386 -198 1 4 31 29 68 57 37 27 134 101 216 165 193 150 257 199
281 216 17 12 21 30 26 111 6 95 3 133 -10 133 -4 0 -52 -33 -107 -73z"/>
</g>
</svg>
